<?xml version="1.0" encoding="utf-8"?>
<!-- Generator: Adobe Illustrator 24.1.1, SVG Export Plug-In . SVG Version: 6.00 Build 0)  -->
<svg version="1.1" id="Layer_1" xmlns="http://www.w3.org/2000/svg" xmlns:xlink="http://www.w3.org/1999/xlink" x="0px" y="0px"
	 viewBox="0 0 512 512" style="enable-background:new 0 0 512 512;" xml:space="preserve">
<g>
	<path d="M268.6,436.9c-16,11.1-35.5,17.7-56.5,17.7c-54.8,0-99.3-44.5-99.3-99.3c0-21,6.6-40.5,17.7-56.5l-38.1-38.1
		c-21.5,26.5-34.5,60.2-34.5,97.1c0,85.2,69,154.2,154.2,154.2c36.8,0,70.6-12.9,97.1-34.5L268.6,436.9z"/>
	<path d="M390.2,0c28.1,0,50.9,22.8,50.9,50.9c0,28.1-22.8,50.9-50.9,50.9c-28.1,0-50.9-22.8-50.9-50.9C339.3,22.8,362.1,0,390.2,0z
		"/>
	<path d="M422.2,224.6h-112l63.9-63.9c1.9-1.5,3.7-3.3,5.2-5.2l0.5-0.5l-0.1,0c4.1-5.4,6.5-11.9,6.5-19.2c0-11.6-6.2-21.6-15.4-27.2
		l0,0L227.8,25.9l-0.1,0.2c-4-1.8-8.4-2.9-13.1-2.9c-8.2,0-15.6,3.2-21.3,8.3l0,0l-0.4,0.4l-1.6,1.6l-63.1,63.1l0.1,0.1
		c-5.4,5.7-8.8,13.4-8.8,21.9c0,17.6,14.3,31.9,31.9,31.9c8.5,0,16.2-3.4,21.9-8.8l0.1,0.1l0.6-0.6l0.1-0.1l46-46l39.2,22.7
		l-92.6,92.6c-17.9,5.5-34.3,14.3-48.8,25.5l37.8,37.8c16-11.1,35.5-17.7,56.5-17.7c54.8,0,99.3,44.5,99.3,99.3
		c0,21-6.6,40.5-17.7,56.5l40.3,40.3c20.2-26.1,32.3-58.8,32.3-94.3c0-25-6-48.5-16.5-69.4h40.4v130.7c0,17.6,14.3,31.9,31.9,31.9
		c17.6,0,31.9-14.3,31.9-31.9V256.5C454.1,238.9,439.8,224.6,422.2,224.6z"/>
</g>
</svg>
